HIERARCHY
ROOT SpineBase
{
  OFFSET 0.000000 0.000000 0.000000
  CHANNELS 6 Xposition Yposition Zposition Zrotation Xrotation Yrotation
  JOINT SpineMid
  {
    OFFSET 0.000000 25.385572 0.000000
    CHANNELS 3 Zrotation Xrotation Yrotation
    JOINT SpineShoulder
    {
      OFFSET -0.090180 19.060140 -0.447498
      CHANNELS 3 Zrotation Xrotation Yrotation
      JOINT Neck
      {
        OFFSET -0.064454 6.392856 -0.391025
        CHANNELS 3 Zrotation Xrotation Yrotation
        JOINT Head
        {
          OFFSET -1.240387 11.470519 1.325673
          CHANNELS 3 Zrotation Xrotation Yrotation
          End Site
          {
            OFFSET 0 0 0
          }
        }
      }
      JOINT ShoulderLeft
      {
        OFFSET -12.691079 -2.624485 3.375487
        CHANNELS 3 Zrotation Xrotation Yrotation
        JOINT ElbowLeft
        {
          OFFSET -3.957948 -22.277790 0.606022
          CHANNELS 3 Zrotation Xrotation Yrotation
          JOINT WristLeft
          {
            OFFSET -6.378797 -4.991987 -23.838155
            CHANNELS 3 Zrotation Xrotation Yrotation
            JOINT HandLeft
            {
              OFFSET -1.192720 -0.582795 -5.506582
              CHANNELS 3 Zrotation Xrotation Yrotation
              JOINT HandTipLeft
              {
                OFFSET -2.697664 0.699419 -8.695591
                CHANNELS 3 Zrotation Xrotation Yrotation
                End Site
                {
                  OFFSET 0 0 0
                }
              }
              JOINT ThumbLeft
              {
                OFFSET -3.933705 1.149567 -4.761416
                CHANNELS 3 Zrotation Xrotation Yrotation
                End Site
                {
                  OFFSET 0 0 0
                }
              }
            }
          }
        }
      }
      JOINT ShoulderRight
      {
        OFFSET 10.684440 -2.128475 -7.337654
        CHANNELS 3 Zrotation Xrotation Yrotation
        JOINT ElbowRight
        {
          OFFSET 5.929087 -20.273964 -2.169916
          CHANNELS 3 Zrotation Xrotation Yrotation
          JOINT WristRight
          {
            OFFSET -12.163337 -3.944394 -17.988571
            CHANNELS 3 Zrotation Xrotation Yrotation
            JOINT HandRight
            {
              OFFSET -4.795527 -0.075295 -5.273819
              CHANNELS 3 Zrotation Xrotation Yrotation
              JOINT HandTipRight
              {
                OFFSET -2.643161 -1.393974 -2.905560
                CHANNELS 3 Zrotation Xrotation Yrotation
                End Site
                {
                  OFFSET 0 0 0
                }
              }
              JOINT ThumbRight
              {
                OFFSET -2.406356 0.385894 -0.448309
                CHANNELS 3 Zrotation Xrotation Yrotation
                End Site
                {
                  OFFSET 0 0 0
                }
              }
            }
          }
        }
      }
    }
  }
  JOINT HipLeft
  {
    OFFSET -6.373011 1.430251 -1.196536
    CHANNELS 3 Zrotation Xrotation Yrotation
    JOINT KneeLeft
    {
      OFFSET -15.333314 6.273549 -29.763631
      CHANNELS 3 Zrotation Xrotation Yrotation
      JOINT AnkleLeft
      {
        OFFSET -2.269913 -36.106875 3.309850
        CHANNELS 3 Zrotation Xrotation Yrotation
        JOINT FootLeft
        {
          OFFSET -3.552357 -1.317938 -10.425439
          CHANNELS 3 Zrotation Xrotation Yrotation
          End Site
          {
            OFFSET 0 0 0
          }
        }
      }
    }
  }
  JOINT HipRight
  {
    OFFSET 5.821658 1.361633 -4.301741
    CHANNELS 3 Zrotation Xrotation Yrotation
    JOINT KneeRight
    {
      OFFSET -12.026058 6.156024 -31.401753
      CHANNELS 3 Zrotation Xrotation Yrotation
      JOINT AnkleRight
      {
        OFFSET 4.663866 -33.591578 -0.572939
        CHANNELS 3 Zrotation Xrotation Yrotation
        JOINT FootRight
        {
          OFFSET -3.725727 -1.307653 -10.404476
          CHANNELS 3 Zrotation Xrotation Yrotation
          End Site
          {
            OFFSET 0 0 0
          }
        }
      }
    }
  }
}
MOTION
Frames: 10
Frame Time: 0.033333
40.536739 43.212411 369.771019 0.000381 3.471246 9.732620 -0.779961 -0.205448 -9.758662 -0.322043 -0.318177 -0.045609 4.613191 12.518530 0.994147 0.000000 0.000000 0.000000 -71.928043 11.820421 1.620973 169.463370 83.433598 -132.873889 21.099472 13.369021 -19.839729 -12.005213 -36.768464 10.408048 0.000000 0.000000 0.000000 0.000000 0.000000 0.000000 -99.262969 67.570753 115.265044 -155.147471 -63.130481 156.250312 24.670257 -23.060346 -6.564908 -27.995143 27.832279 3.617358 0.000000 0.000000 0.000000 0.000000 0.000000 0.000000 8.194794 -17.499857 3.484753 -4.293776 15.182412 -11.351406 0.035378 -1.790979 -30.059036 0.000000 0.000000 0.000000 5.118599 -20.084718 -2.334645 1.623567 13.717540 -7.801633 -0.598277 -21.028369 -8.922416 0.000000 0.000000 0.000000
40.526509 43.290250 369.817031 -0.585810 3.391267 9.781140 -1.162984 -0.317082 -9.827745 -0.450052 -0.370556 -0.097476 9.464672 15.470320 0.405294 0.000000 0.000000 0.000000 -68.716237 11.598563 1.688857 164.960387 83.493336 -130.276959 15.205349 14.403721 -16.116805 -17.551747 -33.788682 7.428882 0.000000 0.000000 0.000000 0.000000 0.000000 0.000000 -92.596512 67.705028 108.696510 -154.540340 -66.561287 155.819437 28.394901 -24.563593 -4.021617 -28.671604 28.551159 1.145231 0.000000 0.000000 0.000000 0.000000 0.000000 0.000000 8.816656 -17.652730 3.413683 -4.198895 15.248655 -11.286921 -0.130895 -4.158964 -28.057791 0.000000 0.000000 0.000000 5.671870 -20.145900 -2.473780 1.578962 13.808594 -7.668640 -0.128236 -22.380484 -8.662063 0.000000 0.000000 0.000000
40.533139 43.333754 369.851707 -1.091183 3.316817 9.735388 -1.222721 -0.421519 -9.786564 -0.437435 -0.368041 -0.118969 12.653763 17.506232 -0.148911 0.000000 0.000000 0.000000 -66.228460 11.679016 1.774455 153.423461 83.378397 -120.591163 6.062960 17.337154 -11.422360 -20.893670 -32.184543 5.303231 0.000000 0.000000 0.000000 0.000000 0.000000 0.000000 -83.538464 68.066469 99.218827 -152.303102 -71.587525 157.345213 28.717549 -25.313335 -4.802044 -31.933361 29.119826 5.508280 0.000000 0.000000 0.000000 0.000000 0.000000 0.000000 9.370736 -17.719357 3.469299 -4.042508 15.080480 -11.256426 -0.307189 -5.849230 -26.512726 0.000000 0.000000 0.000000 6.191067 -20.157408 -2.453009 1.609134 13.975499 -7.609115 -0.726094 -21.130220 -10.370148 0.000000 0.000000 0.000000
40.532378 43.387904 369.878878 -1.504879 3.239923 9.912728 -1.047761 -0.489553 -9.955567 -0.306651 -0.363186 -0.116921 14.051427 18.659943 -0.473638 0.000000 0.000000 0.000000 -64.168418 11.897356 1.827768 148.227056 83.363659 -117.291259 6.239285 16.235793 -10.998115 -29.156382 -39.964697 11.319812 0.000000 0.000000 0.000000 0.000000 0.000000 0.000000 -79.071581 68.869292 95.087996 -149.795475 -73.517977 160.890931 25.433716 -23.468880 -5.928856 -26.840092 27.576071 2.585074 0.000000 0.000000 0.000000 0.000000 0.000000 0.000000 9.757999 -17.815432 3.262738 -3.873798 14.860019 -11.198888 -0.499957 -6.800861 -25.532050 0.000000 0.000000 0.000000 6.576531 -20.254509 -2.616354 1.696724 14.308462 -7.616373 6.650141 -35.789915 2.255581 0.000000 0.000000 0.000000
40.535653 43.419419 369.888396 -1.775487 3.156778 10.043119 -0.746606 -0.513107 -10.070106 -0.080367 -0.349338 -0.095754 13.545635 18.854136 -0.436198 0.000000 0.000000 0.000000 -63.626533 12.340338 1.975857 135.332319 83.443961 -104.960036 -1.167451 20.104476 -7.820323 -25.447554 -36.372746 6.629945 0.000000 0.000000 0.000000 0.000000 0.000000 0.000000 -78.791644 70.261888 95.712270 -148.328204 -72.745781 164.666888 21.501376 -21.059286 -7.150015 -20.330188 24.494900 2.628274 0.000000 0.000000 0.000000 0.000000 0.000000 0.000000 9.998711 -17.834242 3.092819 -3.698639 14.637497 -11.154437 -0.701681 -7.007262 -25.268557 0.000000 0.000000 0.000000 6.852019 -20.319906 -2.693157 1.874594 14.708716 -7.690492 15.547651 -45.943028 13.562901 0.000000 0.000000 0.000000
40.532759 43.422924 369.874970 -1.818529 3.109068 10.149969 -0.292533 -0.476464 -10.150870 0.254056 -0.308000 -0.049026 10.842008 18.238613 0.019376 0.000000 0.000000 0.000000 -65.014606 12.608795 2.012217 135.695046 80.638961 -106.247234 -12.608941 20.563758 -1.602154 -7.080780 -37.647444 3.009085 0.000000 0.000000 0.000000 0.000000 0.000000 0.000000 -86.599011 72.276217 105.217088 -150.349580 -67.716987 166.920062 10.399799 -14.864176 -14.357171 -15.833815 22.194178 5.029822 0.000000 0.000000 0.000000 0.000000 0.000000 0.000000 10.003547 -17.820453 2.939270 -3.503131 14.392884 -11.122568 -0.956233 -6.371193 -25.776834 0.000000 0.000000 0.000000 6.908013 -20.369076 -2.731046 1.876408 14.660069 -7.773500 16.212799 -46.128350 14.849323 0.000000 0.000000 0.000000
40.530687 43.390199 369.843381 -1.630303 3.079417 10.077666 0.234274 -0.411560 -10.048359 0.609120 -0.267996 0.011841 6.706279 17.064046 0.676130 0.000000 0.000000 0.000000 -66.874017 12.288508 1.734828 143.298219 80.066266 -113.522339 -9.894764 20.733649 -3.608001 -2.961597 -38.317935 3.412610 0.000000 0.000000 0.000000 0.000000 0.000000 0.000000 -98.860280 74.119900 119.402511 -150.875431 -62.926533 170.546122 9.538079 -13.658136 -13.348344 -15.617947 22.269885 3.340615 0.000000 0.000000 0.000000 0.000000 0.000000 0.000000 9.817651 -17.708306 2.977081 -3.384190 14.258091 -11.122935 -1.107781 -5.098396 -27.010166 0.000000 0.000000 0.000000 6.784886 -20.332451 -2.589859 1.944717 14.643756 -7.873449 21.925843 -47.535277 25.544830 0.000000 0.000000 0.000000
40.521861 43.325754 369.787943 -1.215564 3.061962 9.855302 0.740464 -0.332646 -9.798286 0.920232 -0.233969 0.077198 1.777373 15.492267 1.358737 0.000000 0.000000 0.000000 -70.482989 11.398600 1.270571 159.515595 81.816509 -126.365807 14.934085 21.461381 -20.332166 -20.815098 -38.126338 7.171374 0.000000 0.000000 0.000000 0.000000 0.000000 0.000000 -101.597311 75.673304 122.274447 -146.997917 -63.781223 175.699724 3.487399 -8.401009 -13.371444 -5.439740 17.718944 0.554380 0.000000 0.000000 0.000000 0.000000 0.000000 0.000000 9.444606 -17.520576 3.174443 -3.301601 14.267240 -11.160396 -1.162379 -3.319810 -28.764014 0.000000 0.000000 0.000000 6.488007 -20.214704 -2.271655 2.046373 14.556378 -8.015170 15.632394 -42.671615 19.508656 0.000000 0.000000 0.000000
40.509913 43.299774 369.745815 -0.870920 3.033608 9.721583 0.925420 -0.302374 -9.655770 1.067522 -0.224410 0.111406 -0.932242 14.730452 1.690117 0.000000 0.000000 0.000000 -74.080423 9.943036 0.651780 -175.709897 79.743423 -148.744760 37.309893 9.797120 -29.732614 -19.534935 -41.275629 16.777061 0.000000 0.000000 0.000000 0.000000 0.000000 0.000000 -112.072834 76.616280 134.217051 -146.051287 -61.623735 178.721026 -3.135712 -2.611755 -12.472532 1.098112 14.555328 -1.135067 0.000000 0.000000 0.000000 0.000000 0.000000 0.000000 9.136232 -17.407555 3.274588 -3.447184 14.617373 -11.175198 -0.792795 0.651156 -32.579120 0.000000 0.000000 0.000000 6.215664 -20.098637 -2.077939 2.091912 14.463825 -8.108071 3.164468 -31.223170 -2.443850 0.000000 0.000000 0.000000
40.484640 43.292609 369.711342 -0.615343 2.977446 9.618612 0.974983 -0.301465 -9.551693 1.023439 -0.258160 0.118950 -2.272964 14.177808 1.837126 0.000000 0.000000 0.000000 -78.447597 8.082443 -0.104353 -166.560342 75.251502 -155.395666 48.921443 -1.965958 -28.302063 -26.272611 -38.953913 21.435466 0.000000 0.000000 0.000000 0.000000 0.000000 0.000000 -125.301533 76.245425 149.365193 -146.077969 -58.723111 -179.799443 -5.435684 -0.707287 -11.002778 2.177101 13.620195 -0.301737 0.000000 0.000000 0.000000 0.000000 0.000000 0.000000 8.924762 -17.341831 3.318270 -3.500955 14.873288 -11.154618 -0.682835 0.429379 -32.798841 0.000000 0.000000 0.000000 6.011397 -19.947067 -1.933228 2.072460 14.435226 -8.157797 -1.617003 -21.257139 -13.734297 0.000000 0.000000 0.000000
